<?xml version="1.0" standalone="no"?>
<!DOCTYPE svg PUBLIC "-//W3C//DTD SVG 20010904//EN"
 "http://www.w3.org/TR/2001/REC-SVG-20010904/DTD/svg10.dtd">
<svg version="1.0" xmlns="http://www.w3.org/2000/svg"
 width="225.000000pt" height="225.000000pt" viewBox="0 0 225.000000 225.000000"
 preserveAspectRatio="xMidYMid meet">

<g transform="translate(0.000000,225.000000) scale(0.100000,-0.100000)"
fill="#000000" stroke="none">
<path d="M129 1803 c-60 -31 -105 -86 -119 -149 -5 -21 -10 -260 -10 -530 0
-533 1 -550 55 -621 15 -19 51 -46 79 -59 l51 -24 645 0 c605 0 647 2 685 19
88 41 131 109 142 229 l8 79 254 -164 c140 -89 262 -163 271 -163 9 0 25 6 36
14 18 14 19 34 22 682 3 726 3 714 -52 714 -13 0 -134 -72 -277 -164 l-254
-164 -7 72 c-13 128 -55 197 -143 237 -37 17 -82 19 -686 19 l-645 0 -55 -27z
m1351 -99 c62 -37 60 -22 60 -583 l0 -511 -34 -38 -34 -37 -631 -3 c-552 -2
-635 -1 -661 13 -61 31 -60 24 -60 585 0 457 2 513 16 536 36 55 19 53 692 54
560 0 627 -2 652 -16z m650 -579 l0 -544 -235 152 -235 151 0 241 0 242 233
150 c127 83 233 152 235 152 1 1 2 -244 2 -544z"/>
</g>
</svg>
