<?xml version="1.0" standalone="no"?>
<!DOCTYPE svg PUBLIC "-//W3C//DTD SVG 20010904//EN"
 "http://www.w3.org/TR/2001/REC-SVG-20010904/DTD/svg10.dtd">
<svg version="1.0" xmlns="http://www.w3.org/2000/svg"
 width="512.000000pt" height="512.000000pt" viewBox="0 0 512.000000 512.000000"
 preserveAspectRatio="xMidYMid meet">

<g transform="translate(0.000000,512.000000) scale(0.100000,-0.100000)"
fill="#000000" stroke="none">
<path d="M322 4800 c-68 -49 -124 -91 -125 -94 -1 -3 716 -1011 1593 -2240
1026 -1437 1600 -2233 1608 -2231 8 3 67 44 133 91 l119 86 -38 54 c-464 654
-3158 4423 -3162 4423 -3 0 -60 -40 -128 -89z"/>
<path d="M1388 4133 c11 -15 61 -86 112 -158 l92 -130 761 -5 762 -5 55 -26
c71 -34 126 -89 159 -158 l26 -56 3 -1022 c2 -1006 2 -1024 -18 -1083 -11 -34
-17 -67 -13 -73 29 -47 178 -247 184 -247 4 0 24 23 44 51 45 61 102 188 111
247 5 34 10 43 23 39 9 -3 241 -106 516 -228 l500 -224 95 0 c80 0 102 4 140
23 63 33 125 96 152 156 l23 51 0 1275 0 1275 -28 57 c-57 116 -173 184 -302
176 -66 -4 -103 -19 -582 -231 -281 -125 -516 -227 -521 -227 -5 0 -12 19 -16
42 -16 101 -110 265 -193 338 -66 59 -154 109 -237 138 l-81 27 -893 3 -894 3
20 -28z m3412 -1574 c0 -1124 -1 -1191 -17 -1185 -10 4 -262 115 -560 248
l-543 240 0 696 0 697 553 246 c303 136 555 247 560 248 4 1 7 -535 7 -1190z"/>
<path d="M198 3978 c-77 -76 -127 -156 -165 -263 l-28 -80 -3 -1040 c-3 -1172
-5 -1130 71 -1285 58 -118 160 -221 277 -279 150 -74 114 -71 1174 -69 l944 3
-110 155 -109 155 -847 5 -847 5 -47 23 c-65 32 -125 94 -156 160 l-27 57 0
1030 c0 1167 -6 1082 83 1177 24 26 42 51 40 57 -6 18 -173 250 -180 251 -4 0
-35 -28 -70 -62z"/>
</g>
</svg>
